<?xml version="1.0" encoding="UTF-8"?><svg id="Layer_2" xmlns="http://www.w3.org/2000/svg" viewBox="0 0 601.75 499.63"><defs><style>.cls-1{fill:none;stroke:#fff;stroke-linecap:round;stroke-linejoin:round;stroke-width:24px;}.cls-2{fill:#72edc9;opacity:.8;}.cls-2,.cls-3{stroke-width:0px;}.cls-3{fill:#fae465;}</style></defs><g id="Layer_1-2"><circle class="cls-3" cx="279.43" cy="461.17" r="38.46"/><circle class="cls-3" cx="466.38" cy="461.17" r="38.46"/><path class="cls-3" d="m552.44,350.87H238.14c-5.32,0-9.95-3.65-11.19-8.83l-41.32-173.2c-1.72-7.23,3.76-14.17,11.19-14.17h393.43c7.34,0,12.8,6.78,11.24,13.95l-37.8,173.2c-1.15,5.28-5.83,9.05-11.24,9.05Z"/><rect class="cls-2" x="234.27" y="15.15" width="239.05" height="239.05" rx="19.41" ry="19.41" transform="translate(27.07 -56.52) rotate(9.5)"/><polygon class="cls-1" points="534.58 323.16 175.44 323.16 124.9 111.33 580.82 111.33 534.58 323.16"/><polyline class="cls-1" points="124.9 111.33 71.14 43.59 12 31.76"/><polyline class="cls-1" points="175.44 323.16 144.26 354.34 144.26 382.3 560.39 382.3"/><circle class="cls-1" cx="253.39" cy="442.54" r="33"/><circle class="cls-1" cx="440.32" cy="442.54" r="33"/></g></svg>